<?xml version="1.0" encoding="utf-8"?>
<!-- Generator: Adobe Illustrator 25.0.0, SVG Export Plug-In . SVG Version: 6.00 Build 0)  -->
<svg version="1.1" id="Layer_1" xmlns="http://www.w3.org/2000/svg" xmlns:xlink="http://www.w3.org/1999/xlink" x="0px" y="0px"
	 viewBox="0 0 200 64" style="enable-background:new 0 0 200 64;" xml:space="preserve">
<style type="text/css">
	.st0{fill-rule:evenodd;clip-rule:evenodd;fill:#FFFFFF;}
	.st1{fill:#008700;}
</style>
<g id="surface1">
	<path class="st0" d="M190,34.3v11.6h-2.5l-0.8-2.5c-1.5,1.9-3.5,2.8-5.9,2.8c-6.2,0-8.9-4.7-8.9-10.9c0-6.4,2.9-11.5,9.4-11.5
		c4.7,0,7.1,3.3,8.4,7.3l-4.5,0.8c-1-2.4-2-3.9-3.9-3.9c-3.2,0-4.3,4.2-4.3,7c0,2.9,1,6.9,4.5,6.9c2.2,0,3.6-1.8,3.6-3.8h-4.2v-3.8
		L190,34.3"/>
	<path class="st0" d="M169.9,28.7h-10.3v4.2h8.3v4.2h-8.3v4.7h10.3V46h-15.5V24.3h15.5V28.7"/>
	<path class="st0" d="M139.8,34l3.3,0.1c1.9,0,3.4-0.8,3.4-2.8c0-2.1-1.5-2.8-3.4-2.9l-3.3-0.1V34z M139.8,38v8.1l-5.3,0.1V24.5
		l9-0.1c4.4,0,7.9,2,7.9,6.7c0,5-3.2,7-7.3,7h-4.3"/>
	<path class="st0" d="M116.6,46.1l-5.3-16.5v16.5H107V24.4h7.7l3.6,12.4l4.1-12.4h8v21.7h-5.1V29.6l-5.2,16.5H116.6"/>
	<path class="st0" d="M80.4,23.5H67.1v6.3h10.5v5.3H67.1v11h-6.9V17.9h20.1v5.6"/>
	<path class="st0" d="M104.9,23.5H91.7v6.3h10.5v5.3H91.7v11h-6.9V17.9h20.1V23.5"/>
	<path class="st1" d="M12.9,15.9c-3.4,0-3.7-5.6,0-5.6h12.8c2.8,0,3.5,3.7,2,5L16,26.9v4.2L37.2,10h13.5c3.1,0,4.2,3.8,2.2,5.5
		C42,26.4,31.1,37.2,20.2,48.1h4.6l24.6-24.5c1.3-1.3,4.6-0.1,4.6,2.6v13.4l-8.8,8.9H51c3.4,0,3.7,5.8,0,5.8H38.2
		c-2.8,0-3.5-3.7-2-5l11.8-12v-4L26.6,54.4H13.2c-3.1,0-4.2-3.8-2.2-5.5C21.9,38,32.8,27.2,43.7,16.3H39L14.4,40.8
		c-1.3,1.3-4.4,0.1-4.4-2.6V24.7l8.6-8.6h-5.7"/>
</g>
</svg>
