<?xml version="1.0" encoding="utf-8"?>
<!-- Generator: Adobe Illustrator 25.0.0, SVG Export Plug-In . SVG Version: 6.00 Build 0)  -->
<svg version="1.1" id="Layer_1" xmlns="http://www.w3.org/2000/svg" xmlns:xlink="http://www.w3.org/1999/xlink" x="0px" y="0px"
	 viewBox="0 0 64 64" style="enable-background:new 0 0 64 64;" xml:space="preserve">
<style type="text/css">
	.st0{fill:#008700;}
</style>
<g id="surface1">
	<path class="st0" d="M12.9,15.9c-3.4,0-3.7-5.6,0-5.6l12.7,0c2.8,0,3.5,3.7,2,5L15.9,26.8V31L37.1,9.9h13.5c3.1,0,4.2,3.8,2.2,5.5
		C42,26.2,31.1,37.1,20.2,47.9h4.6l24.6-24.5c1.3-1.3,4.6-0.1,4.6,2.6v13.4l-8.8,8.9H51c3.4,0,3.7,5.8,0,5.8l-12.8,0
		c-2.8,0-3.5-3.7-2-5l11.8-12v-4L26.8,54.1H13.2c-3.1,0-4.2-3.8-2.2-5.5c10.9-10.9,21.8-21.7,32.7-32.6H39L14.5,40.6
		C13.1,41.9,10,40.7,10,38V24.4l8.6-8.6H12.9"/>
</g>
</svg>
