<?xml version="1.0" encoding="utf-8"?>
<!-- Generator: Adobe Illustrator 25.0.0, SVG Export Plug-In . SVG Version: 6.00 Build 0)  -->
<svg version="1.1" xmlns="http://www.w3.org/2000/svg" xmlns:xlink="http://www.w3.org/1999/xlink" x="0px" y="0px"
	 viewBox="0 0 160 48" style="enable-background:new 0 0 160 48;" xml:space="preserve">
<style type="text/css">
	.st0{opacity:0.2;enable-background:new    ;}
	.st1{fill:#C2352A;}
	.st2{fill:#FFFFFF;}
	.st3{opacity:0.2;fill:#FFFFFF;enable-background:new    ;}
	.st4{fill:#03A9F4;}
	.st5{font-family:'AtkinsonHyperlegible-Regular';}
	.st6{font-size:21px;}
</style>
<g id="Layer_1">
	<path class="st0" d="M22.6,37.6c-6.2-0.1-8.7-0.2-10.2-0.4c-1.1-0.2-1.7-0.3-2.3-0.6c-1-0.5-1.7-1.2-2.1-2.4
		c-0.4-1.1-0.6-1.9-0.8-3.7C7,28.5,7,28.1,7,25c0-3.7,0-4.9,0.3-7.4c0.1-1.3,0.3-2.1,0.7-3.1c0.3-0.8,0.6-1.3,1.1-1.8
		c0.7-0.6,1.4-1,2.3-1.2C12.8,11.2,19,11,25.7,11s12.9,0.2,14.3,0.5c1,0.2,1.7,0.6,2.4,1.3c0.6,0.6,0.8,1.1,1.2,2.1
		c0.4,1.1,0.5,2,0.7,4.9c0.1,1.3,0.1,7.5,0,8.9c-0.1,1.6-0.2,3-0.3,3.5c-0.2,1.3-0.7,2.5-1.2,3.2c-0.4,0.5-1.1,1-1.6,1.3
		c-0.6,0.3-1.2,0.4-2.1,0.5C36.2,37.5,27.6,37.7,22.6,37.6L22.6,37.6z"/>
	<path class="st1" d="M22.6,36.3c-6.2-0.1-8.7-0.2-10.2-0.4c-1.1-0.2-1.7-0.3-2.3-0.6c-1-0.5-1.7-1.2-2.1-2.4
		c-0.4-1.1-0.6-1.9-0.8-3.7C7,27.1,7,26.8,7,23.6c0-3.7,0-4.9,0.3-7.4c0.1-1.3,0.3-2.1,0.7-3.1c0.3-0.8,0.6-1.3,1.1-1.8
		c0.7-0.6,1.4-1,2.3-1.2c1.4-0.3,7.6-0.5,14.3-0.5S38.6,9.9,40,10.2c1,0.2,1.7,0.6,2.4,1.3c0.6,0.6,0.8,1.1,1.2,2.1
		c0.4,1.1,0.5,2,0.7,4.9c0.1,1.3,0.1,7.5,0,8.9c-0.1,1.6-0.2,3-0.3,3.5c-0.2,1.3-0.7,2.5-1.2,3.2c-0.4,0.5-1.1,1-1.6,1.3
		c-0.6,0.3-1.2,0.4-2.1,0.5C36.2,36.2,27.6,36.4,22.6,36.3L22.6,36.3z"/>
	<path class="st0" d="M25.8,27.4c5.3-3,5.2-2.9,5.2-3c0-0.1-9.3-5.4-9.3-5.3c0,0,0,10.6,0,10.7c0,0,0,0,0.1,0
		C21.8,29.6,23.6,28.6,25.8,27.4L25.8,27.4z"/>
	<path class="st2" d="M25.8,26c5.3-3,5.2-2.9,5.2-3c0-0.1-9.3-5.4-9.3-5.3c0,0,0,10.6,0,10.7c0,0,0,0,0.1,0
		C21.8,28.3,23.6,27.3,25.8,26L25.8,26z"/>
	<path class="st3" d="M25.7,9.7c-6.7,0-12.9,0.2-14.3,0.5c-0.9,0.2-1.7,0.6-2.3,1.2c-0.5,0.5-0.8,1-1.1,1.8
		c-0.3,0.9-0.5,1.8-0.7,3.1C7,18.7,7,19.9,7,23.6c0,0.2,0,0.3,0,0.5c0-2.9,0-4.3,0.3-6.5c0.1-1.3,0.3-2.1,0.7-3.1
		c0.3-0.8,0.6-1.3,1.1-1.8c0.7-0.6,1.4-1,2.3-1.2C12.8,11.2,19,11,25.7,11s12.9,0.2,14.3,0.5c1,0.2,1.7,0.6,2.4,1.3
		c0.6,0.6,0.8,1.1,1.2,2.1c0.4,1.1,0.5,2,0.7,4.9c0,0.6,0.1,2.2,0.1,3.8c0-2.1,0-4.3-0.1-5.1c-0.2-2.8-0.3-3.8-0.7-4.9
		c-0.3-1-0.6-1.6-1.2-2.1c-0.7-0.7-1.4-1.1-2.4-1.3C38.6,9.9,32.4,9.7,25.7,9.7z"/>
	<g>
		<circle class="st4" cx="37" cy="33" r="10"/>
		<path class="st2" d="M39,27v5.3h2l-4,5.3l-4-5.3h2V27H39z M32.3,37.7h9.3V39h-9.3V37.7z"/>
		<path class="st0" d="M47,33.6c-0.3,5.3-4.7,9.4-10,9.4c-5.2,0-9.6-4-10-9.3c0,0.2,0,0.4,0,0.6c0,5.5,4.5,10,10,10s10-4.5,10-10
			C47,34.1,47,33.8,47,33.6z"/>
	</g>
</g>
<g id="Layer_3">
	<text transform="matrix(1 0 0 1 54.7578 28.333)" class="st2 st5 st6">youtube-dl</text>
</g>
</svg>
